PathFileType	4	(X/Y/Z)	 2.8Hzlow3min.trc
DataRate	CameraRate	NumFrames	NumMarkers	Units	OrigDataRate	OrigDataStartFrame	OrigNumFrames
200	200	9	43	m	200	251	1000
Frame#	Time	C7			LSH			RSH			MAN			RASI			LASI			HIPR			HIPL			RPSI			LPSI			COX			RTHI1			RTHI2			RTHI3			RTHI4			RLKN			RMKN			RSHA1			RSHA2			RSHA3			RSHA4			RLMAL			RMMAL			RHEEL			RMET5			RMET1			RTOE			LTHI1			LTHI2			LTHI3			LTHI4			LLKN			LMKN			LSHA1			LSHA2			LSHA3			LSHA4			LLMAL			LMMAL			LHEEL			LMET5			LMET1			LTOE			
		X1	Y1	Z1	X2	Y2	Z2	X3	Y3	Z3	X4	Y4	Z4	X5	Y5	Z5	X6	Y6	Z6	X7	Y7	Z7	X8	Y8	Z8	X9	Y9	Z9	X10	Y10	Z10	X11	Y11	Z11	X12	Y12	Z12	X13	Y13	Z13	X14	Y14	Z14	X15	Y15	Z15	X16	Y16	Z16	X17	Y17	Z17	X18	Y18	Z18	X19	Y19	Z19	X20	Y20	Z20	X21	Y21	Z21	X22	Y22	Z22	X23	Y23	Z23	X24	Y24	Z24	X25	Y25	Z25	X26	Y26	Z26	X27	Y27	Z27	X28	Y28	Z28	X29	Y29	Z29	X30	Y30	Z30	X31	Y31	Z31	X32	Y32	Z32	X33	Y33	Z33	X34	Y34	Z34	X35	Y35	Z35	X36	Y36	Z36	X37	Y37	Z37	X38	Y38	Z38	X39	Y39	Z39	X40	Y40	Z40	X41	Y41	Z41	X42	Y42	Z42	X43	Y43	Z43	
251	1.2550	-0.288164	1.414851	-0.531903	-0.207371	1.400178	-0.692955	-0.217517	1.390699	-0.384486	-0.163412	1.351997	-0.535210	-0.147734	0.925851	-0.417263	-0.158721	0.930630	-0.661089	-0.193752	0.987038	-0.394839	-0.206003	0.997339	-0.679883	-0.309290	0.969975	-0.500295	-0.314791	0.968288	-0.565156	-0.317000	0.965537	-0.533351	-0.243322	0.741684	-0.360410	-0.226156	0.684402	-0.358479	-0.163297	0.698832	-0.357442	-0.172126	0.759957	-0.359067	-0.214725	0.495778	-0.377016	-0.207354	0.479386	-0.500142	-0.310288	0.346788	-0.374737	-0.313437	0.306805	-0.382000	-0.263182	0.294073	-0.363708	-0.252513	0.336837	-0.358194	-0.299867	0.151598	-0.388982	-0.279856	0.154063	-0.464683	-0.351999	0.146073	-0.423957	-0.215478	0.058758	-0.377556	-0.186120	0.065917	-0.441430	-0.163069	0.055152	-0.440119	-0.267011	0.758366	-0.712973	-0.248450	0.699743	-0.717816	-0.185067	0.714214	-0.724438	-0.196338	0.773229	-0.721248	-0.230287	0.482564	-0.707235	-0.212586	0.480932	-0.589325	-0.331568	0.312944	-0.696423	-0.337316	0.273972	-0.685647	-0.280709	0.264603	-0.709991	-0.281384	0.307989	-0.716742	-0.318130	0.155675	-0.692074	-0.296185	0.153656	-0.617130	-0.364759	0.157412	-0.638244	-0.247599	0.062167	-0.707648	-0.211837	0.063796	-0.646550	-0.192364	0.053635	-0.650384	
252	1.2600	-0.287853	1.411326	-0.531855	-0.207256	1.396495	-0.693004	-0.216960	1.386994	-0.384467	-0.163202	1.348296	-0.535304	-0.147884	0.922362	-0.417216	-0.158917	0.926949	-0.661180	-0.193988	0.983468	-0.394867	-0.206439	0.993526	-0.679942	-0.309544	0.966040	-0.500338	-0.315067	0.964256	-0.565183	-0.317248	0.961554	-0.533389	-0.243044	0.738027	-0.360269	-0.225793	0.680768	-0.358407	-0.162949	0.695287	-0.357371	-0.171869	0.756401	-0.358931	-0.214198	0.492207	-0.376959	-0.207408	0.475979	-0.500124	-0.309601	0.343229	-0.374323	-0.312951	0.303315	-0.381754	-0.262503	0.290478	-0.363625	-0.251754	0.333228	-0.357999	-0.299589	0.148142	-0.388855	-0.279985	0.150626	-0.464556	-0.351926	0.142928	-0.423611	-0.215679	0.054655	-0.377917	-0.186352	0.061908	-0.441849	-0.163335	0.050929	-0.440724	-0.267007	0.754529	-0.713174	-0.248349	0.695932	-0.717928	-0.184988	0.710491	-0.724519	-0.196355	0.769494	-0.721418	-0.229728	0.478984	-0.707462	-0.211865	0.477367	-0.589587	-0.331335	0.309626	-0.696421	-0.337191	0.270677	-0.685625	-0.280642	0.261144	-0.710073	-0.281206	0.304527	-0.716842	-0.318363	0.152288	-0.692046	-0.296267	0.150318	-0.617108	-0.364915	0.154361	-0.638155	-0.248314	0.058026	-0.707208	-0.212475	0.059955	-0.646178	-0.193102	0.049793	-0.649991	
253	1.2650	-0.287560	1.407555	-0.531828	-0.207127	1.392605	-0.693030	-0.216386	1.383077	-0.384493	-0.162995	1.344328	-0.535395	-0.148042	0.918632	-0.417148	-0.159084	0.923014	-0.661250	-0.194235	0.979669	-0.394872	-0.206833	0.989472	-0.679996	-0.309791	0.961903	-0.500399	-0.315329	0.960029	-0.565226	-0.317487	0.957368	-0.533440	-0.242740	0.734129	-0.360102	-0.225396	0.676892	-0.358314	-0.162570	0.691514	-0.357333	-0.171595	0.752610	-0.358825	-0.213607	0.488384	-0.376904	-0.207369	0.472315	-0.500081	-0.308890	0.339440	-0.373917	-0.312453	0.299580	-0.381463	-0.261821	0.286642	-0.363531	-0.250978	0.329385	-0.357800	-0.299477	0.144483	-0.388737	-0.280217	0.146972	-0.464466	-0.352017	0.139590	-0.423329	-0.216095	0.050126	-0.378266	-0.186731	0.057498	-0.442266	-0.163823	0.046182	-0.441352	-0.267014	0.750488	-0.713315	-0.248276	0.691910	-0.718016	-0.184933	0.706549	-0.724587	-0.196380	0.765539	-0.721549	-0.229151	0.475163	-0.707713	-0.211103	0.473528	-0.589872	-0.331121	0.306054	-0.696467	-0.337092	0.267144	-0.685652	-0.280589	0.257432	-0.710166	-0.281029	0.300796	-0.716947	-0.318775	0.148721	-0.691993	-0.296524	0.146758	-0.617057	-0.365281	0.151084	-0.638020	-0.249160	0.053610	-0.706757	-0.213114	0.055936	-0.645554	-0.193801	0.045833	-0.649288	
254	1.2700	-0.287289	1.403545	-0.531823	-0.206974	1.388517	-0.693036	-0.215800	1.378961	-0.384564	-0.162797	1.340088	-0.535484	-0.148203	0.914660	-0.417055	-0.159230	0.918829	-0.661299	-0.194489	0.975638	-0.394852	-0.207184	0.985184	-0.680055	-0.310030	0.957574	-0.500476	-0.315581	0.955616	-0.565284	-0.317721	0.952987	-0.533502	-0.242424	0.729989	-0.359909	-0.224977	0.672781	-0.358205	-0.162172	0.687518	-0.357345	-0.171311	0.748587	-0.358763	-0.212949	0.484312	-0.376846	-0.207229	0.468394	-0.500012	-0.308173	0.335431	-0.373506	-0.311977	0.295622	-0.381100	-0.261185	0.282559	-0.363411	-0.250222	0.325293	-0.357591	-0.299679	0.140663	-0.388632	-0.280714	0.143134	-0.464432	-0.352431	0.135998	-0.423085	-0.216801	0.045531	-0.378334	-0.187140	0.053382	-0.443198	-0.164214	0.042194	-0.442701	-0.267030	0.746232	-0.713394	-0.248226	0.687676	-0.718085	-0.184895	0.702388	-0.724643	-0.196414	0.761361	-0.721634	-0.228544	0.471105	-0.708005	-0.210302	0.469432	-0.590190	-0.330973	0.302251	-0.696580	-0.337082	0.263384	-0.685736	-0.280614	0.253446	-0.710268	-0.280909	0.296786	-0.717076	-0.319535	0.145019	-0.691890	-0.297154	0.143041	-0.616944	-0.366047	0.147596	-0.637858	-0.250174	0.049322	-0.706586	-0.213392	0.052608	-0.644500	-0.193720	0.042507	-0.647645	
255	1.2750	-0.287048	1.399297	-0.531842	-0.206773	1.384235	-0.693023	-0.215210	1.374654	-0.384678	-0.162622	1.335593	-0.535564	-0.148367	0.910455	-0.416934	-0.159361	0.914410	-0.661333	-0.194754	0.971381	-0.394797	-0.207478	0.980669	-0.680126	-0.310270	0.953064	-0.500558	-0.315828	0.951029	-0.565359	-0.317962	0.948425	-0.533567	-0.242106	0.725607	-0.359693	-0.224546	0.668436	-0.358076	-0.161769	0.683299	-0.357418	-0.171032	0.744341	-0.358760	-0.212216	0.479986	-0.376776	-0.206988	0.464195	-0.499921	-0.307559	0.331261	-0.373017	-0.311598	0.291481	-0.380667	-0.260671	0.278231	-0.363249	-0.249541	0.320944	-0.357378	-0.300323	0.136727	-0.388536	-0.281637	0.139155	-0.464475	-0.353293	0.132169	-0.422845	-0.217550	0.041653	-0.377738	-0.187278	0.050131	-0.444030	-0.164043	0.039007	-0.444151	-0.267053	0.741759	-0.713419	-0.248195	0.683234	-0.718139	-0.184874	0.698005	-0.724690	-0.196449	0.756955	-0.721670	-0.227885	0.466802	-0.708353	-0.209476	0.465076	-0.590558	-0.330973	0.298229	-0.696786	-0.337249	0.259428	-0.685862	-0.280816	0.249196	-0.710356	-0.280929	0.292490	-0.717243	-0.320790	0.141253	-0.691721	-0.298357	0.139256	-0.616733	-0.367358	0.143933	-0.637649	-0.251051	0.045861	-0.706696	-0.213403	0.049945	-0.643867	-0.193415	0.039916	-0.646383	
256	1.2800	-0.286842	1.394812	-0.531876	-0.206516	1.379776	-0.693001	-0.214624	1.370166	-0.384830	-0.162442	1.330867	-0.535653	-0.148534	0.906038	-0.416785	-0.159485	0.909774	-0.661360	-0.195031	0.966897	-0.394699	-0.207718	0.975926	-0.680225	-0.310521	0.948389	-0.500640	-0.316081	0.946289	-0.565442	-0.318219	0.943703	-0.533631	-0.241803	0.720991	-0.359459	-0.224112	0.663858	-0.357933	-0.161375	0.678862	-0.357559	-0.170773	0.739869	-0.358831	-0.211400	0.475399	-0.376686	-0.206648	0.459719	-0.499797	-0.307125	0.326952	-0.372482	-0.311402	0.287186	-0.380162	-0.260363	0.273674	-0.363047	-0.249014	0.316335	-0.357203	-0.301532	0.132743	-0.388458	-0.283179	0.135091	-0.464598	-0.354707	0.128178	-0.422611	-0.218028	0.038577	-0.377190	-0.187462	0.047527	-0.444271	-0.164003	0.036700	-0.445333	-0.267077	0.737075	-0.713396	-0.248177	0.678574	-0.718182	-0.184866	0.693399	-0.724736	-0.196483	0.752327	-0.721666	-0.227142	0.462256	-0.708774	-0.208638	0.460474	-0.591001	-0.331213	0.294057	-0.697088	-0.337709	0.255358	-0.686017	-0.281307	0.244710	-0.710385	-0.281181	0.287941	-0.717430	-0.322674	0.137510	-0.691460	-0.300297	0.135512	-0.616381	-0.369324	0.140175	-0.637394	-0.251927	0.043152	-0.706698	-0.213608	0.048053	-0.643571	-0.193191	0.038121	-0.645054	
257	1.2850	-0.286679	1.390104	-0.531925	-0.206225	1.375153	-0.692983	-0.214045	1.365514	-0.385009	-0.162241	1.325937	-0.535753	-0.148704	0.901428	-0.416605	-0.159609	0.904948	-0.661388	-0.195322	0.962196	-0.394549	-0.207915	0.970972	-0.680366	-0.310795	0.943569	-0.500716	-0.316345	0.941419	-0.565527	-0.318505	0.938840	-0.533692	-0.241523	0.716150	-0.359213	-0.223680	0.659065	-0.357780	-0.160990	0.674215	-0.357760	-0.170545	0.735190	-0.358977	-0.210486	0.470556	-0.376570	-0.206205	0.454962	-0.499620	-0.306933	0.322556	-0.371934	-0.311449	0.282782	-0.379607	-0.260376	0.268921	-0.362839	-0.248706	0.311493	-0.357075	-0.303397	0.128801	-0.388418	-0.285520	0.131005	-0.464783	-0.356710	0.124067	-0.422312	-0.218808	0.036236	-0.376518	-0.187957	0.046037	-0.444569	-0.164055	0.035442	-0.446505	-0.267098	0.732175	-0.713327	-0.248162	0.673697	-0.718221	-0.184863	0.688572	-0.724800	-0.196514	0.747485	-0.721642	-0.226281	0.457462	-0.709283	-0.207789	0.455631	-0.591547	-0.331762	0.289831	-0.697461	-0.338552	0.251260	-0.686175	-0.282174	0.240056	-0.710317	-0.281745	0.283213	-0.717615	-0.325218	0.133869	-0.691085	-0.303066	0.131934	-0.615855	-0.371933	0.136396	-0.637143	-0.253318	0.041256	-0.706958	-0.214083	0.047174	-0.643223	-0.193103	0.037220	-0.643786	
258	1.2900	-0.286561	1.385193	-0.531980	-0.205939	1.370394	-0.692991	-0.213487	1.360724	-0.385191	-0.162017	1.320842	-0.535861	-0.148879	0.896646	-0.416398	-0.159740	0.899964	-0.661431	-0.195639	0.957280	-0.394340	-0.208074	0.965827	-0.680560	-0.311097	0.938625	-0.500774	-0.316630	0.936430	-0.565612	-0.318824	0.933857	-0.533746	-0.241268	0.711082	-0.358969	-0.223250	0.654056	-0.357623	-0.160611	0.669382	-0.357998	-0.170355	0.730317	-0.359182	-0.209449	0.465468	-0.376438	-0.205645	0.449925	-0.499358	-0.307017	0.318144	-0.371377	-0.311820	0.278354	-0.379089	-0.260767	0.264016	-0.362665	-0.248679	0.306457	-0.357016	-0.305795	0.124951	-0.388389	-0.288489	0.127043	-0.465048	-0.359160	0.119935	-0.421941	-0.219920	0.034900	-0.375625	-0.188730	0.045694	-0.444767	-0.164200	0.035326	-0.447441	-0.267108	0.727073	-0.713222	-0.248139	0.668617	-0.718263	-0.184860	0.683547	-0.724914	-0.196544	0.742443	-0.721627	-0.225262	0.452426	-0.709863	-0.206922	0.450555	-0.592206	-0.332638	0.285662	-0.697875	-0.339790	0.247236	-0.686319	-0.283433	0.235367	-0.710142	-0.282638	0.278439	-0.717764	-0.328210	0.130342	-0.690625	-0.306513	0.128609	-0.615182	-0.374990	0.132689	-0.636912	-0.254944	0.040307	-0.707354	-0.214831	0.047140	-0.643169	-0.193173	0.037067	-0.642932	
259	1.2950	-0.286495	1.380111	-0.532039	-0.205643	1.365528	-0.693044	-0.212960	1.355827	-0.385347	-0.161722	1.315625	-0.535979	-0.149063	0.891723	-0.416170	-0.159878	0.894860	-0.661502	-0.195994	0.952167	-0.394068	-0.208214	0.960507	-0.680813	-0.311440	0.933573	-0.500806	-0.316944	0.931342	-0.565692	-0.319180	0.928774	-0.533788	-0.241033	0.705811	-0.358734	-0.222811	0.648863	-0.357452	-0.160237	0.664393	-0.358240	-0.170203	0.725289	-0.359426	-0.208284	0.460172	-0.376301	-0.204953	0.444634	-0.498986	-0.307377	0.313788	-0.370810	-0.312526	0.273969	-0.378643	-0.261516	0.259033	-0.362554	-0.248938	0.301316	-0.357040	-0.308455	0.121216	-0.388351	-0.291824	0.123266	-0.465365	-0.361814	0.115904	-0.421546	-0.220901	0.034256	-0.374918	-0.189714	0.045757	-0.444277	-0.164567	0.035154	-0.447518	-0.267101	0.721778	-0.713085	-0.248094	0.663342	-0.718313	-0.184850	0.678346	-0.725108	-0.196573	0.737221	-0.721653	-0.224074	0.447173	-0.710499	-0.206018	0.445251	-0.592997	-0.333778	0.281636	-0.698320	-0.341336	0.243385	-0.686480	-0.284964	0.230802	-0.709858	-0.283774	0.273788	-0.717854	-0.331320	0.126927	-0.690126	-0.310299	0.125540	-0.614419	-0.378209	0.129088	-0.636693	-0.256338	0.039840	-0.707510	-0.215937	0.047098	-0.643614	-0.193940	0.036958	-0.643029	
